# xmcd
#
# Track frame offsets: 
#        150
#        15432
#        35780
#        54817
#        72377
#        93947
#        117510
#        136697
#
# Disc length: 2030 seconds
#
# Revision: 0
# Processed by: cddbd v1.5.2PL0 Copyright (c) Steve Scherf et al.
# Submitted via: ExactAudioCopy v0.99pb4
#
DISCID=6207ec08
DTITLE=The 8Th Day - I Gotta Get Home (Can't Let My Baby Get Lonely)
DYEAR=1973
DGENRE=Soul
TTITLE0=I Gotta Get Home (Can't Let My Baby Get Lonely)
TTITLE1=Cheba
TTITLE2=Good Book
TTITLE3=Anythang
TTITLE4=Rocks In My Head
TTITLE5=Faith Is The Answer
TTITLE6=Get Your Mind Straight
TTITLE7=Heaven Is There To Guide Us
EXTD=
EXTT0=
EXTT1=
EXTT2=
EXTT3=
EXTT4=
EXTT5=
EXTT6=
EXTT7=
PLAYORDER=
